<?xml version="1.0" encoding="UTF-8"?>
<!DOCTYPE svg PUBLIC "-//W3C//DTD SVG 1.1//EN" "http://www.w3.org/Graphics/SVG/1.1/DTD/svg11.dtd">
<!-- Creator: CorelDRAW -->
<svg xmlns="http://www.w3.org/2000/svg" xml:space="preserve" width="2614.1mm" height="1879.18mm" version="1.1" style="shape-rendering:geometricPrecision; text-rendering:geometricPrecision; image-rendering:optimizeQuality; fill-rule:evenodd; clip-rule:evenodd"
viewBox="0 0 46921.3 33729.95"
 xmlns:xlink="http://www.w3.org/1999/xlink"
 xmlns:xodm="http://www.corel.com/coreldraw/odm/2003">
 <defs>
  <style type="text/css">
   <![CDATA[
    .str0 {stroke:#373435;stroke-width:3.59;stroke-miterlimit:22.9256}
    .fil1 {fill:none}
    .fil2 {fill:#FEFEFE}
    .fil0 {fill:#3D2E2B}
   ]]>
  </style>
    <clipPath id="id0">
     <path d="M15856.44 23972.25l0 -1992.24 1147.56 0c308.39,0 647.36,56.47 881.6,273.91 231.48,214.9 296.9,532.58 296.9,836.51 0,86.82 -5.68,174.32 -20.47,259.94l-0.16 0.9 -0.18 0.9c-15.89,81.83 -41.46,161.26 -76.31,236.99 -66.91,145.36 -166.63,265.24 -300.38,353.16 -99.27,65.25 -207.17,114.18 -321.55,146.34l-1.32 0.37 -1.36 0.34c-142.08,35.14 -298.57,43.7 -444.49,43.7l-1081.63 0 0.65 1.34 -141.01 0c-504.74,0 -1009.47,-1.39 -1514.21,-1.42l-138.09 0 266.77 -576.1 463.43 0 -323.18 -667 -585.44 1244.52 -818.11 0 1092.29 -2154.38 649.98 0 968.72 1992.22zm9993.78 -3420.23l11964.75 0 -2466.31 3582.4 -46.38 0c-3857.64,0 -7715.27,0 -11572.92,0l-54.29 0 -5292.63 -10484.9 -5292.61 10484.9 -3983.49 0 7339.03 -14538.92 3874.16 0 5530.68 10956.51zm-6540.31 2672.54l603.01 -1244.53 783.28 0 -1047.55 2154.4 -650 0 -1092.29 -2154.4 818.11 0 585.44 1244.53zm4565.71 -8150.8l10402.79 0 -2466.29 3582.4 -6128.17 0 -1808.33 -3582.4zm-2765.35 -5478.25l9616.1 0 -2466.31 3582.39 -5341.45 0 -1808.35 -3582.39zm-3780.13 13056.7c-73.2,-82.41 -234.26,-94.44 -335.72,-94.44l-414.5 0 0 997.54 414.5 0c100.41,0 261.07,-11.69 332.78,-94 77.23,-88.63 86.51,-294.7 86.51,-405.22 0,-111.65 -9.15,-311.93 -83.58,-403.88z"/>
    </clipPath>
     <clipPath id="id1">
      <path d="M17546.06 23056.1c0,151.27 -14.57,372.21 -119.08,492.17 -102.28,117.4 -286.4,139.41 -432.58,139.41l-546.86 0 0 -1262.26 546.86 0c147.44,0 333,22.51 436.28,140.72l0.44 0.5 0.42 0.51c100.23,121.93 114.53,338.11 114.53,488.95zm-1557.28 -943.72l0 1888.34 1027.48 0c134.73,0 281.5,-7.37 412.04,-39.65 100.62,-28.29 196.07,-71.54 283.99,-129.33 113.03,-74.3 196.31,-175.08 252.85,-297.91 30.44,-66.11 52.74,-135.43 66.53,-206.41 13.41,-77.69 18.46,-157.73 18.46,-236.97 0,-264.51 -52.19,-551.61 -254.59,-739.5 -207.38,-192.5 -519.57,-238.56 -791.54,-238.56l-1015.22 0zm4495.87 0.02l-488.81 0 -687.71 1419.36 -667.7 -1419.36 -518.59 0 958.07 1889.68 485.89 0 918.84 -1889.68zm-4760.91 1889.67l-918.85 -1889.67 -485.88 0 -958.07 1889.68 518.59 0 667.69 -1419.36 536.14 1106.54 -590.06 0 -144.2 311.41c458.21,0.14 916.43,1.29 1374.64,1.4z"/>
     </clipPath>
     <clipPath id="id2">
      <path d="M9321.41 24002.08l3686.97 0 5374.07 -10646.25 5374.07 10646.25c3840.86,0 7681.72,0 11522.59,0l2284.06 -3317.68 -11794.4 0 -5530.69 -10956.53 -3711.26 0 -7205.41 14274.21zm12003.93 -14274.21l1674.72 3317.68 5190.43 0 2284.06 -3317.68 -9149.21 0zm2765.34 5478.26l1674.72 3317.68 5977.14 0 2284.06 -3317.68 -9935.92 0z"/>
     </clipPath>
 </defs>
 <g id="Layer_x0020_1">
  <metadata id="CorelCorpID_0Corel-Layer"/>
  <rect class="fil0 str0" x="1.79" y="1.79" width="46917.71" height="33726.36"/>
  <g id="_1738486499680">
   <g style="clip-path:url(#id0)">
    <image x="7429.04" y="6186.72" width="32063.22" height="21356.49" xlink:href="Untitled-1_Images\Untitled-1_ImgID1.png"/>
   </g>
   <path class="fil1" d="M15856.43 23972.26l0 -1992.24 1147.57 0c308.39,0 647.35,56.47 881.58,273.92 231.49,214.89 296.9,532.58 296.9,836.5 0,86.82 -5.69,174.32 -20.48,259.94l-0.15 0.91 -0.18 0.91c-15.9,81.83 -41.45,161.26 -76.31,236.98 -66.91,145.35 -166.63,265.24 -300.38,353.16 -99.27,65.26 -207.18,114.19 -321.55,146.33l-1.34 0.38 -1.35 0.34c-142.08,35.15 -298.57,43.7 -444.5,43.7l-1081.64 0 0.66 1.36 -141.02 0c-504.74,0 -1009.47,-1.39 -1514.21,-1.43l-138.09 -0.01 266.78 -576.1 463.43 0 -323.18 -667 -585.45 1244.53 -818.1 0 1092.28 -2154.39 649.99 0 968.72 1992.23zm9993.79 -3420.22l11964.75 0 -2466.3 3582.39 -46.38 0c-3857.64,0 -7715.29,0 -11572.92,0l-54.3 0 -5292.62 -10484.89 -5292.62 10484.89 -3983.49 0 7339.03 -14538.92 3874.16 0 5530.69 10956.53zm-6540.31 2672.53l603 -1244.53 783.29 0 -1047.56 2154.39 -650 0 -1092.28 -2154.39 818.1 0 585.45 1244.53zm4565.7 -8150.8l10402.8 0 -2466.3 3582.39 -6128.16 0 -1808.34 -3582.39zm-2765.34 -5478.26l9616.09 0 -2466.3 3582.39 -5341.45 0 -1808.34 -3582.39zm-3780.13 13056.72c-73.2,-82.43 -234.26,-94.45 -335.73,-94.45l-414.5 0 0 997.55 414.5 0c100.42,0 261.08,-11.69 332.78,-94 77.23,-88.64 86.52,-294.7 86.52,-405.22 0,-111.64 -9.15,-311.92 -83.57,-403.87z"/>
   <path class="fil2" d="M17546.06 23056.1c0,151.27 -14.57,372.21 -119.08,492.17 -102.28,117.4 -286.4,139.41 -432.58,139.41l-546.86 0 0 -1262.26 546.86 0c147.44,0 333,22.51 436.28,140.72l0.44 0.5 0.42 0.51c100.23,121.93 114.53,338.11 114.53,488.95zm-1557.28 -943.72l0 1888.34 1027.48 0c134.73,0 281.5,-7.37 412.04,-39.65 100.62,-28.29 196.07,-71.54 283.99,-129.33 113.03,-74.3 196.31,-175.08 252.85,-297.91 30.44,-66.11 52.74,-135.43 66.53,-206.41 13.41,-77.69 18.46,-157.73 18.46,-236.97 0,-264.51 -52.19,-551.61 -254.59,-739.5 -207.38,-192.5 -519.57,-238.56 -791.54,-238.56l-1015.22 0zm4495.87 0.02l-488.81 0 -687.71 1419.36 -667.7 -1419.36 -518.59 0 958.07 1889.68 485.89 0 918.84 -1889.68zm-4760.91 1889.67l-918.85 -1889.67 -485.88 0 -958.07 1889.68 518.59 0 667.69 -1419.36 536.14 1106.54 -590.06 0 -144.2 311.41c458.21,0.14 916.43,1.29 1374.64,1.4z"/>
   <g>
    <g style="clip-path:url(#id1)">
     <image x="13360.95" y="22112.38" width="7123.71" height="1889.7" xlink:href="Untitled-1_Images\Untitled-1_ImgID2.png"/>
    </g>
   </g>
   <path class="fil2" d="M9321.41 24002.08l3686.97 0 5374.07 -10646.25 5374.07 10646.25c3840.86,0 7681.72,0 11522.59,0l2284.06 -3317.68 -11794.4 0 -5530.69 -10956.53 -3711.26 0 -7205.41 14274.21zm12003.93 -14274.21l1674.72 3317.68 5190.43 0 2284.06 -3317.68 -9149.21 0zm2765.34 5478.26l1674.72 3317.68 5977.14 0 2284.06 -3317.68 -9935.92 0z"/>
   <g>
    <g style="clip-path:url(#id2)">
     <image x="9321.41" y="9727.87" width="28241.75" height="14274.21" xlink:href="Untitled-1_Images\Untitled-1_ImgID3.png"/>
    </g>
   </g>
  </g>
 </g>
</svg>
